<?xml version="1.0" encoding="UTF-8" standalone="no"?>
<!-- Created with Inkscape (http://www.inkscape.org/) -->
<svg xmlns:dc="http://purl.org/dc/elements/1.1/" xmlns:cc="http://web.resource.org/cc/" xmlns:rdf="http://www.w3.org/1999/02/22-rdf-syntax-ns#" xmlns:svg="http://www.w3.org/2000/svg" xmlns="http://www.w3.org/2000/svg" xmlns:xlink="http://www.w3.org/1999/xlink" xmlns:sodipodi="http://sodipodi.sourceforge.net/DTD/sodipodi-0.dtd" xmlns:inkscape="http://www.inkscape.org/namespaces/inkscape" width="400" height="329" id="svg2" sodipodi:version="0.32" inkscape:version="0.45.1" version="1.0" sodipodi:docbase="C:\Documents and Settings\tkelley\My Documents\My Pictures\wiki" sodipodi:docname="fac.svg" inkscape:output_extension="org.inkscape.output.svg.inkscape">
  <defs id="defs4">
    <linearGradient id="linearGradient11076">
      <stop style="stop-color:#dc611d;stop-opacity:0.94117647;" offset="0" id="stop11078"/>
      <stop style="stop-color:#fdf3d7;stop-opacity:1;" offset="1" id="stop11080"/>
    </linearGradient>
    <linearGradient id="linearGradient9998">
      <stop style="stop-color:#c05b17;stop-opacity:1;" offset="0" id="stop10000"/>
      <stop id="stop10002" offset="1" style="stop-color:#f19a64;stop-opacity:1;"/>
    </linearGradient>
    <linearGradient id="linearGradient9005">
      <stop id="stop9996" offset="0" style="stop-color:#636095;stop-opacity:1;"/>
      <stop style="stop-color:#07070c;stop-opacity:1;" offset="1" id="stop9009"/>
    </linearGradient>
    <linearGradient id="linearGradient8020">
      <stop style="stop-color:#cecece;stop-opacity:1;" offset="0" id="stop8022"/>
      <stop style="stop-color:#ffffff;stop-opacity:1;" offset="1" id="stop8024"/>
    </linearGradient>
    <linearGradient id="linearGradient8004">
      <stop style="stop-color:#dc621f;stop-opacity:1;" offset="0" id="stop8006"/>
      <stop style="stop-color:#fffae0;stop-opacity:1;" offset="1" id="stop8008"/>
    </linearGradient>
    <linearGradient id="linearGradient7998">
      <stop id="stop8000" offset="0" style="stop-color:#e38165;stop-opacity:1;"/>
      <stop style="stop-color:#fec997;stop-opacity:0.94117647;" offset="1" id="stop8010"/>
    </linearGradient>
    <linearGradient inkscape:collect="always" xlink:href="#linearGradient9998" id="linearGradient7996" x1="181.41467" y1="252.09724" x2="165.88071" y2="252.32663" gradientUnits="userSpaceOnUse"/>
    <linearGradient inkscape:collect="always" xlink:href="#linearGradient8020" id="linearGradient8026" x1="200" y1="389.50504" x2="600" y2="389.50504" gradientUnits="userSpaceOnUse"/>
    <linearGradient inkscape:collect="always" xlink:href="#linearGradient9005" id="linearGradient10022" x1="180.10283" y1="234.89305" x2="166.96313" y2="265.51654" gradientUnits="userSpaceOnUse"/>
    <linearGradient inkscape:collect="always" xlink:href="#linearGradient9005" id="linearGradient10026" gradientUnits="userSpaceOnUse" x1="180.10283" y1="234.89305" x2="166.96313" y2="265.51654" gradientTransform="matrix(0.9274193,0,0,0.9325015,458.20461,363.98683)"/>
    <linearGradient inkscape:collect="always" xlink:href="#linearGradient9998" id="linearGradient10028" gradientUnits="userSpaceOnUse" x1="181.41467" y1="252.09724" x2="165.88071" y2="252.32663" gradientTransform="matrix(0.9274193,0,0,0.9325015,458.20461,363.98683)"/>
    <linearGradient inkscape:collect="always" xlink:href="#linearGradient9005" id="linearGradient10032" gradientUnits="userSpaceOnUse" gradientTransform="matrix(0.8899527,0,0,0.8976583,493.01175,372.60805)" x1="180.10283" y1="234.89305" x2="166.96313" y2="265.51654"/>
    <linearGradient inkscape:collect="always" xlink:href="#linearGradient9998" id="linearGradient10034" gradientUnits="userSpaceOnUse" gradientTransform="matrix(0.8899527,0,0,0.8976583,493.01175,372.60805)" x1="181.41467" y1="252.09724" x2="165.88071" y2="252.32663"/>
    <linearGradient inkscape:collect="always" xlink:href="#linearGradient9005" id="linearGradient10038" gradientUnits="userSpaceOnUse" gradientTransform="matrix(0.8657592,0,0,0.8751588,525.376,379.65169)" x1="180.10283" y1="234.89305" x2="166.96313" y2="265.51654"/>
    <linearGradient inkscape:collect="always" xlink:href="#linearGradient9998" id="linearGradient10040" gradientUnits="userSpaceOnUse" gradientTransform="matrix(0.8657592,0,0,0.8751588,525.376,379.65169)" x1="181.41467" y1="252.09724" x2="165.88071" y2="252.32663"/>
    <linearGradient inkscape:collect="always" xlink:href="#linearGradient9005" id="linearGradient10044" gradientUnits="userSpaceOnUse" gradientTransform="matrix(0.8335011,0,0,0.8451595,555.52958,387.20813)" x1="180.10283" y1="234.89305" x2="166.96313" y2="265.51654"/>
    <linearGradient inkscape:collect="always" xlink:href="#linearGradient9998" id="linearGradient10046" gradientUnits="userSpaceOnUse" gradientTransform="matrix(0.8335011,0,0,0.8451595,555.52958,387.20813)" x1="181.41467" y1="252.09724" x2="165.88071" y2="252.32663"/>
    <filter inkscape:collect="always" id="filter10048">
      <feGaussianBlur inkscape:collect="always" stdDeviation="0.1284222" id="feGaussianBlur10050"/>
    </filter>
    <linearGradient inkscape:collect="always" xlink:href="#linearGradient9005" id="linearGradient10054" gradientUnits="userSpaceOnUse" x1="180.10283" y1="234.89305" x2="166.96313" y2="265.51654" gradientTransform="translate(149.76375,225.00504)"/>
    <linearGradient inkscape:collect="always" xlink:href="#linearGradient9998" id="linearGradient10056" gradientUnits="userSpaceOnUse" x1="181.41467" y1="252.09724" x2="165.88071" y2="252.32663" gradientTransform="translate(149.76375,225.00504)"/>
    <linearGradient inkscape:collect="always" xlink:href="#linearGradient9005" id="linearGradient10060" gradientUnits="userSpaceOnUse" gradientTransform="translate(124.18685,225.34912)" x1="180.10283" y1="234.89305" x2="166.96313" y2="265.51654"/>
    <linearGradient inkscape:collect="always" xlink:href="#linearGradient9998" id="linearGradient10062" gradientUnits="userSpaceOnUse" gradientTransform="translate(124.18685,225.34912)" x1="181.41467" y1="252.09724" x2="165.88071" y2="252.32663"/>
    <linearGradient inkscape:collect="always" xlink:href="#linearGradient8004" id="linearGradient11046" x1="248.29562" y1="166.25305" x2="234.22913" y2="165.92863" gradientUnits="userSpaceOnUse" gradientTransform="translate(418.00045,345.03505)"/>
    <linearGradient inkscape:collect="always" xlink:href="#linearGradient8004" id="linearGradient11048" x1="198.07639" y1="150.96797" x2="182.29138" y2="150.96799" gradientUnits="userSpaceOnUse" gradientTransform="translate(418.00045,345.03505)"/>
    <linearGradient inkscape:collect="always" xlink:href="#linearGradient8004" id="linearGradient11050" x1="139.2645" y1="140.99664" x2="121.18811" y2="141.15884" gradientUnits="userSpaceOnUse" gradientTransform="translate(418.00045,345.03505)"/>
    <linearGradient inkscape:collect="always" xlink:href="#linearGradient8020" id="linearGradient11058" x1="131.53181" y1="107.64502" x2="216.70331" y2="33.227329" gradientUnits="userSpaceOnUse" gradientTransform="translate(418.00045,345.03505)"/>
    <linearGradient inkscape:collect="always" xlink:href="#linearGradient8020" id="linearGradient11066" x1="195.03242" y1="116.26142" x2="289.73041" y2="71.261475" gradientUnits="userSpaceOnUse" gradientTransform="translate(418.00045,345.03505)"/>
    <linearGradient inkscape:collect="always" xlink:href="#linearGradient8004" id="linearGradient11101" x1="135.84737" y1="201.42497" x2="286.03665" y2="201.42497" gradientUnits="userSpaceOnUse" gradientTransform="translate(418.00045,345.03505)"/>
    <linearGradient inkscape:collect="always" xlink:href="#linearGradient7998" id="linearGradient11109" x1="88.207565" y1="220.69527" x2="114.37852" y2="182.60202" gradientUnits="userSpaceOnUse" gradientTransform="translate(418.00045,345.03505)"/>
    <linearGradient inkscape:collect="always" xlink:href="#linearGradient7998" id="linearGradient11117" x1="83.622215" y1="282.59973" x2="120.89256" y2="223.83699" gradientUnits="userSpaceOnUse" gradientTransform="translate(418.00045,345.03505)"/>
    <linearGradient inkscape:collect="always" xlink:href="#linearGradient8004" id="linearGradient11125" x1="146.02051" y1="248.19733" x2="312.82672" y2="248.19733" gradientUnits="userSpaceOnUse" gradientTransform="translate(418.00045,345.03505)"/>
    <linearGradient inkscape:collect="always" xlink:href="#linearGradient8020" id="linearGradient12102" x1="231.87556" y1="123.42538" x2="357.9328" y2="123.42538" gradientUnits="userSpaceOnUse" gradientTransform="translate(418.00045,345.03505)"/>
    <linearGradient inkscape:collect="always" xlink:href="#linearGradient8004" id="linearGradient14048" gradientUnits="userSpaceOnUse" x1="146.02051" y1="248.19733" x2="312.82672" y2="248.19733" gradientTransform="translate(200,215.00504)"/>
    <linearGradient inkscape:collect="always" xlink:href="#linearGradient9005" id="linearGradient2244" gradientUnits="userSpaceOnUse" gradientTransform="matrix(0.9274193,0,0,0.9980425,430.63015,346.17485)" x1="180.10283" y1="234.89305" x2="166.96313" y2="265.51654"/>
    <linearGradient inkscape:collect="always" xlink:href="#linearGradient9998" id="linearGradient2246" gradientUnits="userSpaceOnUse" gradientTransform="matrix(0.9274193,0,0,0.9980425,430.63015,346.17485)" x1="181.41467" y1="252.09724" x2="165.88071" y2="252.32663"/>
    <linearGradient inkscape:collect="always" xlink:href="#linearGradient9005" id="linearGradient2250" gradientUnits="userSpaceOnUse" gradientTransform="matrix(0.9274193,0,0,0.9980425,378.23867,345.12053)" x1="180.10283" y1="234.89305" x2="166.96313" y2="265.51654"/>
    <linearGradient inkscape:collect="always" xlink:href="#linearGradient9998" id="linearGradient2252" gradientUnits="userSpaceOnUse" gradientTransform="matrix(0.9274193,0,0,0.9980425,378.23867,345.12053)" x1="181.41467" y1="252.09724" x2="165.88071" y2="252.32663"/>
    <linearGradient inkscape:collect="always" xlink:href="#linearGradient9005" id="linearGradient2257" gradientUnits="userSpaceOnUse" gradientTransform="matrix(0.9274193,0,0,0.9980425,352.44844,345.20163)" x1="180.10283" y1="234.89305" x2="166.96313" y2="265.51654"/>
    <linearGradient inkscape:collect="always" xlink:href="#linearGradient9998" id="linearGradient2259" gradientUnits="userSpaceOnUse" gradientTransform="matrix(0.9274193,0,0,0.9980425,352.44844,345.20163)" x1="181.41467" y1="252.09724" x2="165.88071" y2="252.32663"/>
    <linearGradient inkscape:collect="always" xlink:href="#linearGradient8004" id="linearGradient2322" gradientUnits="userSpaceOnUse" gradientTransform="translate(418.00045,345.03505)" x1="146.02051" y1="248.19733" x2="312.82672" y2="248.19733"/>
    <linearGradient inkscape:collect="always" xlink:href="#linearGradient7998" id="linearGradient2324" gradientUnits="userSpaceOnUse" gradientTransform="translate(418.00045,345.03505)" x1="83.622215" y1="282.59973" x2="120.89256" y2="223.83699"/>
    <linearGradient inkscape:collect="always" xlink:href="#linearGradient8004" id="linearGradient2326" gradientUnits="userSpaceOnUse" gradientTransform="translate(418.00045,345.03505)" x1="139.2645" y1="140.99664" x2="121.18811" y2="141.15884"/>
    <linearGradient inkscape:collect="always" xlink:href="#linearGradient8020" id="linearGradient2328" gradientUnits="userSpaceOnUse" gradientTransform="translate(418.00045,345.03505)" x1="195.03242" y1="116.26142" x2="289.73041" y2="71.261475"/>
    <linearGradient inkscape:collect="always" xlink:href="#linearGradient8004" id="linearGradient2330" gradientUnits="userSpaceOnUse" gradientTransform="translate(418.00045,345.03505)" x1="198.07639" y1="150.96797" x2="182.29138" y2="150.96799"/>
    <linearGradient inkscape:collect="always" xlink:href="#linearGradient7998" id="linearGradient2332" gradientUnits="userSpaceOnUse" gradientTransform="translate(418.00045,345.03505)" x1="88.207565" y1="220.69527" x2="114.37852" y2="182.60202"/>
    <linearGradient inkscape:collect="always" xlink:href="#linearGradient8004" id="linearGradient2334" gradientUnits="userSpaceOnUse" gradientTransform="translate(418.00045,345.03505)" x1="248.29562" y1="166.25305" x2="234.22913" y2="165.92863"/>
    <linearGradient inkscape:collect="always" xlink:href="#linearGradient8004" id="linearGradient2336" gradientUnits="userSpaceOnUse" gradientTransform="translate(418.00045,345.03505)" x1="135.84737" y1="201.42497" x2="286.03665" y2="201.42497"/>
    <linearGradient inkscape:collect="always" xlink:href="#linearGradient8020" id="linearGradient2338" gradientUnits="userSpaceOnUse" gradientTransform="translate(418.00045,345.03505)" x1="131.53181" y1="107.64502" x2="216.70331" y2="33.227329"/>
    <linearGradient inkscape:collect="always" xlink:href="#linearGradient8020" id="linearGradient2340" gradientUnits="userSpaceOnUse" gradientTransform="translate(418.00045,345.03505)" x1="231.87556" y1="123.42538" x2="357.9328" y2="123.42538"/>
    <linearGradient inkscape:collect="always" xlink:href="#linearGradient9005" id="linearGradient2342" gradientUnits="userSpaceOnUse" gradientTransform="matrix(0.9274193,0,0,0.9325015,458.20461,363.98683)" x1="180.10283" y1="234.89305" x2="166.96313" y2="265.51654"/>
    <linearGradient inkscape:collect="always" xlink:href="#linearGradient9998" id="linearGradient2344" gradientUnits="userSpaceOnUse" gradientTransform="matrix(0.9274193,0,0,0.9325015,458.20461,363.98683)" x1="181.41467" y1="252.09724" x2="165.88071" y2="252.32663"/>
    <linearGradient inkscape:collect="always" xlink:href="#linearGradient9005" id="linearGradient2346" gradientUnits="userSpaceOnUse" gradientTransform="matrix(0.8899527,0,0,0.8976583,493.01175,372.60805)" x1="180.10283" y1="234.89305" x2="166.96313" y2="265.51654"/>
    <linearGradient inkscape:collect="always" xlink:href="#linearGradient9998" id="linearGradient2348" gradientUnits="userSpaceOnUse" gradientTransform="matrix(0.8899527,0,0,0.8976583,493.01175,372.60805)" x1="181.41467" y1="252.09724" x2="165.88071" y2="252.32663"/>
    <linearGradient inkscape:collect="always" xlink:href="#linearGradient9005" id="linearGradient2350" gradientUnits="userSpaceOnUse" gradientTransform="matrix(0.8657592,0,0,0.8751588,525.376,379.65169)" x1="180.10283" y1="234.89305" x2="166.96313" y2="265.51654"/>
    <linearGradient inkscape:collect="always" xlink:href="#linearGradient9998" id="linearGradient2352" gradientUnits="userSpaceOnUse" gradientTransform="matrix(0.8657592,0,0,0.8751588,525.376,379.65169)" x1="181.41467" y1="252.09724" x2="165.88071" y2="252.32663"/>
    <linearGradient inkscape:collect="always" xlink:href="#linearGradient9005" id="linearGradient2354" gradientUnits="userSpaceOnUse" gradientTransform="matrix(0.8335011,0,0,0.8451595,555.52958,387.20813)" x1="180.10283" y1="234.89305" x2="166.96313" y2="265.51654"/>
    <linearGradient inkscape:collect="always" xlink:href="#linearGradient9998" id="linearGradient2356" gradientUnits="userSpaceOnUse" gradientTransform="matrix(0.8335011,0,0,0.8451595,555.52958,387.20813)" x1="181.41467" y1="252.09724" x2="165.88071" y2="252.32663"/>
    <linearGradient inkscape:collect="always" xlink:href="#linearGradient9005" id="linearGradient2358" gradientUnits="userSpaceOnUse" gradientTransform="matrix(0.9274193,0,0,0.9980425,430.63015,346.17485)" x1="180.10283" y1="234.89305" x2="166.96313" y2="265.51654"/>
    <linearGradient inkscape:collect="always" xlink:href="#linearGradient9998" id="linearGradient2360" gradientUnits="userSpaceOnUse" gradientTransform="matrix(0.9274193,0,0,0.9980425,430.63015,346.17485)" x1="181.41467" y1="252.09724" x2="165.88071" y2="252.32663"/>
    <linearGradient inkscape:collect="always" xlink:href="#linearGradient9005" id="linearGradient2362" gradientUnits="userSpaceOnUse" gradientTransform="matrix(0.9274193,0,0,0.9980425,378.23867,345.12053)" x1="180.10283" y1="234.89305" x2="166.96313" y2="265.51654"/>
    <linearGradient inkscape:collect="always" xlink:href="#linearGradient9998" id="linearGradient2364" gradientUnits="userSpaceOnUse" gradientTransform="matrix(0.9274193,0,0,0.9980425,378.23867,345.12053)" x1="181.41467" y1="252.09724" x2="165.88071" y2="252.32663"/>
    <linearGradient inkscape:collect="always" xlink:href="#linearGradient9005" id="linearGradient2366" gradientUnits="userSpaceOnUse" gradientTransform="matrix(0.9274193,0,0,0.9980425,352.44844,345.20163)" x1="180.10283" y1="234.89305" x2="166.96313" y2="265.51654"/>
    <linearGradient inkscape:collect="always" xlink:href="#linearGradient9998" id="linearGradient2368" gradientUnits="userSpaceOnUse" gradientTransform="matrix(0.9274193,0,0,0.9980425,352.44844,345.20163)" x1="181.41467" y1="252.09724" x2="165.88071" y2="252.32663"/>
  </defs>
  <sodipodi:namedview id="base" pagecolor="#ffffff" bordercolor="#666666" borderopacity="1.0" gridtolerance="10000" guidetolerance="10" objecttolerance="10" inkscape:pageopacity="0.0" inkscape:pageshadow="2" inkscape:zoom="0.7706406" inkscape:cx="364.28109" inkscape:cy="-39.417286" inkscape:document-units="px" inkscape:current-layer="layer1" inkscape:window-width="1005" inkscape:window-height="968" inkscape:window-x="176" inkscape:window-y="22"/>
  <metadata id="metadata7">
    <rdf:RDF>
      <cc:Work rdf:about="">
        <dc:format>image/svg+xml</dc:format>
        <dc:type rdf:resource="http://purl.org/dc/dcmitype/StillImage"/>
      </cc:Work>
    </rdf:RDF>
  </metadata>
  <g inkscape:label="Layer 1" inkscape:groupmode="layer" id="layer1" transform="translate(-200,-225.00504)">
    <g id="g2301" transform="translate(-217.95205,-119.89227)">
      <path sodipodi:nodetypes="cccsccccsccssccccccccc" id="path2239" d="M 434.56295,374.10976 C 446.99946,362.83501 484.07941,361.7734 504.4135,351.60636 C 519.47144,346.59777 550.66147,346.5656 573.54394,346.5656 C 597.60832,346.74914 618.42841,343.81158 636.37981,344.68297 C 661.89122,345.92133 682.1596,349.95983 702.4434,361.32783 C 716.54709,368.63432 743.25015,376.96048 758.43186,384.55134 C 783.72822,392.78885 801.50331,407.63976 808.29939,426.6777 C 812.71272,441.17256 815.85214,456.72546 817.30075,474.56493 C 820.90865,496.72298 812.17482,499.71863 802.43429,505.42184 C 789.43628,513.03235 772.47398,514.61317 798.03784,533.25379 C 801.09831,537.35338 804.73688,538.65461 808.47942,547.47594 C 808.92773,551.25651 807.88101,555.11163 803.97873,558.09755 C 786.74128,571.28716 780.25588,583.0556 780.5752,587.98206 C 781.09681,596.02947 780.03512,594.89204 780.03512,612.46575 C 672.61719,655.36716 570.71814,644.25142 472.99876,627.85808 C 464.24457,625.66953 452.45199,613.79229 448.60508,609.94537 C 438.72375,599.79401 437.80344,585.9007 445.81465,573.30985 C 453.19577,562.74142 455.98619,550.62748 445.72464,539.37472 C 438.43354,532.12865 433.49148,520.36446 430.60236,508.77009 C 428.30259,503.01806 425.66719,492.53649 430.60236,485.36656 C 434.94046,479.48078 441.13395,449.47963 424.84149,423.07715 C 413.27143,407.49567 415.49258,386.62887 434.56295,374.10976 z " style="fill:#b8ebff;fill-opacity:1;fill-rule:evenodd;stroke:#000000;stroke-width:0;stroke-linecap:butt;stroke-linejoin:miter;stroke-miterlimit:4;stroke-dasharray:none;stroke-opacity:1"/>
      <path sodipodi:nodetypes="ccccccccccccccccccc" id="path2241" d="M 705.32383,602.02417 L 515.21513,614.98614 C 491.45992,616.08836 459.36308,618.89779 447.34488,627.04795 C 427.86155,637.83806 424.39142,643.33338 443.02423,648.47119 C 452.02559,650.62676 454.72936,652.88353 462.82722,657.65257 C 466.8446,661.34902 466.08543,663.77349 485.33062,662.15325 C 500.36389,659.94792 502.11101,661.01547 497.57247,667.19401 C 493.74689,672.33979 496.31228,676.49542 516.65536,672.95489 C 525.06006,671.80357 558.59812,665.41684 567.42301,662.87336 C 586.03755,659.23167 602.70331,655.30095 623.23144,662.15326 C 634.03746,664.7063 679.06914,668.49528 711.98485,661.61317 C 724.23854,658.66141 728.23539,651.24524 776.6146,643.79048 C 810.12555,636.56351 811.48944,633.98171 800.73824,627.04795 C 796.5087,624.59454 793.22211,622.09037 791.55686,616.42635 C 790.43169,607.96132 791.59142,605.98819 783.63567,606.16481 C 781.08122,606.33054 780.96545,606.93185 765.11448,606.46537 C 757.72934,606.24803 756.70734,605.21572 755.18632,603.33948 C 753.45624,600.92044 749.7857,600.01259 744.7472,600.65073 C 730.6929,600.4179 706.31968,602.42251 705.32383,602.02417 z " style="fill:#a0a086;fill-opacity:1;fill-rule:evenodd;stroke:#000000;stroke-width:0;stroke-linecap:butt;stroke-linejoin:miter;stroke-miterlimit:4;stroke-dasharray:none;stroke-opacity:1"/>
      <path sodipodi:nodetypes="ccccc" id="path2243" d="M 564.58461,559.6574 L 564.52096,626.68003 L 727.46297,626.80733 L 730.32718,574.74226 L 564.58461,559.6574 z " style="fill:url(#linearGradient2322);fill-opacity:1;fill-rule:nonzero;stroke:#000000;stroke-width:0;stroke-linecap:butt;stroke-linejoin:miter;stroke-miterlimit:4;stroke-dasharray:none;stroke-opacity:1"/>
      <path style="fill:url(#linearGradient2324);fill-opacity:1;fill-rule:evenodd;stroke:#000000;stroke-width:0;stroke-linecap:butt;stroke-linejoin:miter;stroke-miterlimit:4;stroke-dasharray:none;stroke-opacity:1" d="M 564.58461,559.6574 L 564.52096,626.68003 L 492.2791,627.63477 L 487.44175,566.65881 L 564.58461,559.6574 z " id="path2247" sodipodi:nodetypes="ccccc"/>
      <path sodipodi:nodetypes="ccccc" id="path2256" d="M 542.49832,454.31794 L 539.18856,523.56829 L 557.26495,529.42402 L 553.50965,454.63619 L 542.49832,454.31794 z " style="fill:url(#linearGradient2326);fill-opacity:1;fill-rule:evenodd;stroke:#000000;stroke-width:0;stroke-linecap:butt;stroke-linejoin:miter;stroke-miterlimit:4;stroke-dasharray:none;stroke-opacity:1"/>
      <path sodipodi:nodetypes="csssssssssssssssssssssssssssss" id="path2168" d="M 669.54217,413.13689 C 669.10024,414.50905 669.55834,417.21044 668.46014,417.78328 C 667.66107,418.2001 664.25224,416.89217 663.68645,416.6376 C 649.25667,410.14497 642.33658,423.20066 641.40922,432.16801 C 641.25207,433.69846 641.4913,434.83123 640.51814,435.47777 C 639.49182,436.15962 637.74117,433.62911 637.39932,433.0591 C 633.58248,426.69485 626.10564,435.40093 622.44175,441.84269 C 621.81936,442.93697 621.13551,444.83706 620.15038,445.15245 C 619.2832,445.43008 617.71497,443.89873 617.34981,443.62487 C 616.69928,443.13697 614.07655,443.25083 613.02167,443.62487 C 610.13007,444.65017 609.48265,446.41712 608.18433,448.52586 C 604.73344,454.1308 606.16202,458.10877 609.45731,461.19205 C 610.46715,462.13691 614.55214,456.35887 615.31304,456.35471 C 616.42852,456.34805 616.72595,457.41788 617.60441,458.64608 C 619.72326,461.60848 630.34564,461.17073 634.28051,457.1185 C 634.88414,456.49686 636.09703,453.77577 637.20837,453.29955 C 638.11641,452.91045 639.31211,454.08896 640.74956,455.10842 C 647.83595,460.13416 657.51395,460.45422 660.24939,453.42685 C 660.76254,452.10857 660.31468,449.25807 661.14048,448.78045 C 661.75111,448.42727 663.27283,450.38738 666.35971,451.07182 C 672.55081,452.44456 689.01686,453.36276 689.78263,443.94311 C 689.9338,442.08364 689.15809,440.25782 689.71898,439.74226 C 690.20183,439.29843 690.78372,439.49499 692.2013,439.80591 C 698.05785,441.09044 714.74497,438.80156 722.56198,429.17649 C 723.75554,427.70686 724.6245,424.32117 724.66241,422.62062 C 724.77714,417.47325 720.01702,413.43701 713.06033,411.97664 C 711.21397,411.58905 709.89736,411.60652 709.57753,411.48201 C 708.69959,411.14022 707.8567,410.52384 707.15886,409.95443 C 702.6363,406.26418 699.19302,404.50209 693.02874,400.78894 C 682.37998,394.37449 672.15463,405.02532 669.54217,413.13689 z " style="opacity:1;fill:url(#linearGradient2328);fill-opacity:1;fill-rule:evenodd;stroke:none;stroke-width:1px;stroke-linecap:butt;stroke-linejoin:miter;stroke-opacity:1"/>
      <path sodipodi:nodetypes="ccccc" id="path2258" d="M 602.77414,459.91907 L 600.29183,533.75216 L 616.07683,536.04353 L 612.38517,459.85542 L 602.77414,459.91907 z " style="fill:url(#linearGradient2330);fill-opacity:1;fill-rule:evenodd;stroke:#000000;stroke-width:0;stroke-linecap:butt;stroke-linejoin:miter;stroke-miterlimit:4;stroke-dasharray:none;stroke-opacity:1"/>
      <path sodipodi:nodetypes="ccccc" id="path2249" d="M 555.73545,560.46376 L 497.68588,565.73031 L 492.02711,527.44492 C 510.50931,522.25265 528.99151,519.86094 554.34782,521.03359 L 555.73545,560.46376 z " style="fill:url(#linearGradient2332);fill-opacity:1;fill-rule:evenodd;stroke:#000000;stroke-width:0;stroke-linecap:butt;stroke-linejoin:miter;stroke-miterlimit:4;stroke-dasharray:none;stroke-opacity:1"/>
      <path sodipodi:nodetypes="ccccc" id="path2260" d="M 654.58461,471.56688 L 652.22958,541.64466 L 666.29607,543.93604 L 663.2409,471.50322 L 654.58461,471.56688 z " style="fill:url(#linearGradient2334);fill-opacity:1;fill-rule:evenodd;stroke:#000000;stroke-width:0;stroke-linecap:butt;stroke-linejoin:miter;stroke-miterlimit:4;stroke-dasharray:none;stroke-opacity:1"/>
      <path style="fill:url(#linearGradient2336);fill-opacity:1;fill-rule:evenodd;stroke:#000000;stroke-width:0;stroke-linecap:butt;stroke-linejoin:miter;stroke-miterlimit:4;stroke-dasharray:none;stroke-opacity:1" d="M 564.5942,559.66005 L 555.73545,560.46376 L 554.34782,521.03359 L 703.53709,545.59989 L 698.83165,571.88647 L 564.5942,559.66005 z " id="path2254" sodipodi:nodetypes="cccccc"/>
      <path sodipodi:nodetypes="cscscscccsccccccccsccsccsccsccsccsccccscc" id="path2262" d="M 551.85476,426.94877 C 553.09468,426.57037 553.10338,426.92284 553.41288,426.36847 C 553.74645,425.771 552.8757,423.94089 552.74576,423.4349 C 552.18194,420.72817 551.13578,417.58252 551.6077,415.10657 C 552.11397,412.45034 554.62232,410.53421 556.27838,409.98625 C 557.20198,409.59049 561.12477,410.07283 561.80825,409.32251 C 562.32793,408.75202 560.52996,406.22497 560.08003,405.23295 C 559.03124,403.44381 558.56286,397.99333 560.90042,394.40354 C 563.37862,390.32539 568.40252,388.25109 570.50398,387.9318 C 571.2276,387.82186 573.40817,387.87216 573.8562,386.91973 C 574.31654,385.94113 573.34726,382.66908 572.92265,381.18498 C 570.63128,373.64131 577.87903,368.51879 582.97923,368.51879 C 602.47406,368.58243 603.2621,368.54532 607.48419,364.44524 C 613.30359,359.99204 616.5817,358.53706 627.21545,358.9714 C 634.33313,359.82302 640.46439,362.5248 641.09097,365.01808 C 642.03113,367.15895 645.88102,368.6504 650.12916,371.1284 C 657.29779,376.50487 653.93888,379.22109 650.76565,382.39432 C 647.36147,385.7985 638.94669,387.10436 637.52661,387.10436 C 636.54242,386.9891 633.69542,387.12796 633.43332,387.43986 C 633.1408,387.78797 632.83866,388.82003 633.83496,389.65033 C 644.58739,398.21495 635.57739,406.56858 619.83214,406.89927 C 618.0664,406.73603 617.26307,406.46641 616.76889,407.16051 C 616.1288,408.05955 617.60817,408.66857 618.43185,409.25429 C 624.42101,414.786 610.02974,423.29494 602.86728,422.08016 C 602.42253,421.97298 600.14929,421.19101 599.71171,421.44919 C 599.19309,421.75519 599.18553,422.1891 599.20979,422.57289 C 599.22515,428.75924 595.72452,431.62029 588.26212,432.23166 C 586.69917,432.15091 585.4686,432.02819 584.82498,432.57994 C 584.09405,433.20655 585.42503,435.97589 585.5252,436.36886 C 587.04339,441.8075 580.93005,443.06527 576.55066,441.42897 C 574.97214,441.26557 575.12857,440.78836 574.48477,441.0644 C 573.70455,441.39893 573.94599,442.20882 573.71827,442.6383 C 572.04355,447.19973 566.9831,446.16399 563.92301,445.31303 C 562.61789,445.00867 561.41778,444.18341 560.74354,444.40247 C 559.75606,444.72329 559.53857,445.80866 559.33355,447.12557 C 559.25308,449.00322 556.3728,450.18306 552.87622,450.27956 C 551.11193,450.49613 547.5494,451.79526 545.79195,452.68007 C 544.92935,450.52014 541.92548,445.72215 546.50823,444.8342 C 547.97216,444.00357 550.38993,444.00164 550.87724,443.33286 C 551.62391,442.30811 550.19815,439.40209 549.3088,436.24156 C 547.69865,431.15435 549.1345,428.26339 551.85476,426.94877 z " style="fill:url(#linearGradient2338);fill-opacity:1;fill-rule:evenodd;stroke:none;stroke-width:1px;stroke-linecap:butt;stroke-linejoin:miter;stroke-opacity:1"/>
      <path sodipodi:nodetypes="csssssssssssssssssssssss" id="path3141" d="M 747.41903,446.97721 C 749.17915,448.1572 752.37623,452.73 752.78764,455.49919 C 752.95516,456.62674 752.94506,457.49377 753.1768,457.72301 C 753.56156,458.10362 759.18729,455.89262 759.9559,455.90916 C 784.9398,456.44694 777.62858,485.00281 758.52379,481.63437 C 757.10817,481.38478 755.86597,479.93468 755.14586,480.38697 C 754.0682,481.06383 754.98249,483.20404 754.44759,484.49141 C 749.07985,497.41018 719.02144,495.24021 711.05317,485.31167 C 709.95736,483.94629 709.4407,482.63712 708.31812,482.28741 C 706.91061,481.84894 706.55731,483.29021 704.46563,484.86956 C 694.10088,492.69563 684.30457,494.84903 673.65941,480.89507 C 672.99123,480.0192 673.21357,478.85587 672.16271,478.57921 C 671.41875,478.38335 671.09615,478.70862 669.79338,479.31918 C 664.73375,481.69046 656.11028,474.1859 656.31593,469.31731 C 656.354,468.41613 658.04612,468.78792 658.08532,468.06617 C 658.11435,467.53171 657.10011,467.30367 656.81233,466.79318 C 652.86073,459.78342 672.90157,451.03808 676.54359,455.59092 C 677.59095,456.90022 679.1086,458.95861 680.27518,458.95341 C 681.33334,458.94869 682.60343,456.30972 683.29041,455.62274 C 686.95583,451.95731 695.42671,446.73607 702.06693,446.71185 C 707.95876,446.69048 713.02516,450.33431 714.20716,451.25903 C 715.54501,452.30567 716.95027,454.09341 718.19975,454.02738 C 719.40066,453.96392 720.41553,450.96834 721.00296,450.32667 C 729.84683,440.66623 741.15539,442.77806 747.41903,446.97721 z " style="opacity:1;fill:url(#linearGradient2340);fill-opacity:1;fill-rule:evenodd;stroke:none;stroke-width:1px;stroke-linecap:butt;stroke-linejoin:miter;stroke-opacity:1"/>
      <path style="opacity:1;fill:url(#linearGradient2342);fill-opacity:1;fill-rule:evenodd;stroke:url(#linearGradient2344);stroke-width:1.99999988;stroke-linecap:butt;stroke-linejoin:miter;stroke-miterlimit:4;stroke-dasharray:none;stroke-opacity:1" d="M 627.08876,581.6261 L 625.74573,612.78811 L 612.40785,612.79584 L 613.18574,580.4869 L 627.08876,581.6261 z " id="path10024" sodipodi:nodetypes="ccccc"/>
      <path sodipodi:nodetypes="ccccc" id="path10030" d="M 654.8855,584.26008 L 654.4772,612.78811 L 640.39336,612.68514 L 641.15836,583.12488 L 654.8855,584.26008 z " style="opacity:1;fill:url(#linearGradient2346);fill-opacity:1;fill-rule:evenodd;stroke:url(#linearGradient2348);stroke-width:2;stroke-linecap:butt;stroke-linejoin:miter;stroke-miterlimit:4;stroke-dasharray:none;stroke-opacity:1"/>
      <path style="opacity:1;fill:url(#linearGradient2350);fill-opacity:1;fill-rule:evenodd;stroke:url(#linearGradient2352);stroke-width:2;stroke-linecap:butt;stroke-linejoin:miter;stroke-miterlimit:4;stroke-dasharray:none;stroke-opacity:1" d="M 680.69181,586.71853 L 680.06523,612.78809 L 668.83765,612.91709 L 669.25024,585.47121 L 680.69181,586.71853 z " id="path10036" sodipodi:nodetypes="ccccc"/>
      <path sodipodi:nodetypes="ccccc" id="path10042" d="M 706.61279,588.96424 L 706.68917,612.90281 L 693.84107,612.92055 L 694.24256,587.83506 L 706.61279,588.96424 z " style="opacity:1;fill:url(#linearGradient2354);fill-opacity:1;fill-rule:evenodd;stroke:url(#linearGradient2356);stroke-width:2;stroke-linecap:butt;stroke-linejoin:miter;stroke-miterlimit:4;stroke-dasharray:none;stroke-opacity:1"/>
      <path sodipodi:nodetypes="ccccc" id="path2242" d="M 599.5143,579.11091 L 598.17127,612.46315 L 584.83339,612.47142 L 585.61128,577.89165 L 599.5143,579.11091 z " style="opacity:1;fill:url(#linearGradient2358);fill-opacity:1;fill-rule:evenodd;stroke:url(#linearGradient2360);stroke-width:1.99999976;stroke-linecap:butt;stroke-linejoin:miter;stroke-miterlimit:4;stroke-dasharray:none;stroke-opacity:1"/>
      <path style="opacity:1;fill:url(#linearGradient2362);fill-opacity:1;fill-rule:evenodd;stroke:url(#linearGradient2364);stroke-width:1.99999976;stroke-linecap:butt;stroke-linejoin:miter;stroke-miterlimit:4;stroke-dasharray:none;stroke-opacity:1" d="M 544.44648,577.24558 L 545.04988,613.27416 L 532.92852,611.2549 L 533.2198,576.83733 L 544.44648,577.24558 z " id="path2248" sodipodi:nodetypes="ccccc"/>
      <path sodipodi:nodetypes="ccccc" id="path2255" d="M 519.06176,577.81329 L 520.88168,613.59856 L 508.76032,611.5793 L 507.42957,576.91843 L 519.06176,577.81329 z " style="opacity:1;fill:url(#linearGradient2366);fill-opacity:1;fill-rule:evenodd;stroke:url(#linearGradient2368);stroke-width:1.99999976;stroke-linecap:butt;stroke-linejoin:miter;stroke-miterlimit:4;stroke-dasharray:none;stroke-opacity:1"/>
    </g>
  </g>
</svg>